<svg width="40" height="40" viewBox="0 0 40 40" fill="none" xmlns="http://www.w3.org/2000/svg">
<path d="M28.8997 9.1C28.5041 9.1 28.1174 9.2173 27.7885 9.43706C27.4596 9.65682 27.2033 9.96918 27.0519 10.3346C26.9005 10.7001 26.8609 11.1022 26.9381 11.4902C27.0153 11.8781 27.2058 12.2345 27.4855 12.5142C27.7652 12.7939 28.1215 12.9844 28.5095 13.0616C28.8975 13.1387 29.2996 13.0991 29.665 12.9478C30.0305 12.7964 30.3428 12.54 30.5626 12.2111C30.7824 11.8822 30.8997 11.4956 30.8997 11.1C30.8997 10.5696 30.689 10.0609 30.3139 9.68579C29.9388 9.31071 29.4301 9.1 28.8997 9.1ZM36.5663 13.1333C36.5339 11.7505 36.2749 10.3823 35.7997 9.08333C35.3759 7.97189 34.7163 6.96546 33.8663 6.13333C33.041 5.27904 32.0323 4.62363 30.9163 4.21667C29.6208 3.72694 28.2511 3.46202 26.8663 3.43333C25.0997 3.33333 24.533 3.33333 19.9997 3.33333C15.4663 3.33333 14.8997 3.33333 13.133 3.43333C11.7483 3.46202 10.3786 3.72694 9.08301 4.21667C7.96913 4.62775 6.96123 5.2826 6.13301 6.13333C5.27872 6.95863 4.6233 7.9674 4.21634 9.08333C3.72661 10.3789 3.46169 11.7486 3.43301 13.1333C3.33301 14.9 3.33301 15.4667 3.33301 20C3.33301 24.5333 3.33301 25.1 3.43301 26.8667C3.46169 28.2514 3.72661 29.6211 4.21634 30.9167C4.6233 32.0326 5.27872 33.0414 6.13301 33.8667C6.96123 34.7174 7.96913 35.3723 9.08301 35.7833C10.3786 36.2731 11.7483 36.538 13.133 36.5667C14.8997 36.6667 15.4663 36.6667 19.9997 36.6667C24.533 36.6667 25.0997 36.6667 26.8663 36.5667C28.2511 36.538 29.6208 36.2731 30.9163 35.7833C32.0323 35.3764 33.041 34.721 33.8663 33.8667C34.7201 33.0376 35.3802 32.0303 35.7997 30.9167C36.2749 29.6177 36.5339 28.2495 36.5663 26.8667C36.5663 25.1 36.6663 24.5333 36.6663 20C36.6663 15.4667 36.6663 14.9 36.5663 13.1333ZM33.5663 26.6667C33.5542 27.7246 33.3626 28.7728 32.9997 29.7667C32.7336 30.492 32.3061 31.1474 31.7497 31.6833C31.2091 32.2342 30.555 32.6607 29.833 32.9333C28.8392 33.2963 27.791 33.4879 26.733 33.5C25.0663 33.5833 24.4497 33.6 20.0663 33.6C15.683 33.6 15.0663 33.6 13.3997 33.5C12.3012 33.5206 11.2073 33.3514 10.1663 33C9.47598 32.7135 8.85193 32.288 8.33301 31.75C7.77982 31.2146 7.35775 30.5587 7.09967 29.8333C6.69277 28.8253 6.46708 27.7532 6.43301 26.6667C6.43301 25 6.33301 24.3833 6.33301 20C6.33301 15.6167 6.33301 15 6.43301 13.3333C6.44048 12.2518 6.63792 11.1799 7.01634 10.1667C7.30975 9.46319 7.76012 8.8361 8.33301 8.33333C8.83936 7.76028 9.46515 7.30516 10.1663 7C11.1823 6.63341 12.253 6.4418 13.333 6.43333C14.9997 6.43333 15.6163 6.33333 19.9997 6.33333C24.383 6.33333 24.9997 6.33333 26.6663 6.43333C27.7243 6.44547 28.7725 6.63708 29.7663 7C30.5237 7.28109 31.2035 7.73808 31.7497 8.33333C32.2958 8.8453 32.7226 9.47122 32.9997 10.1667C33.3701 11.1816 33.5618 12.253 33.5663 13.3333C33.6497 15 33.6663 15.6167 33.6663 20C33.6663 24.3833 33.6497 25 33.5663 26.6667ZM19.9997 11.45C18.3094 11.4533 16.6579 11.9575 15.2541 12.899C13.8503 13.8405 12.757 15.177 12.1124 16.7396C11.4678 18.3022 11.3009 20.0208 11.6327 21.6782C11.9644 23.3357 12.7801 24.8576 13.9765 26.0516C15.1729 27.2457 16.6964 28.0584 18.3544 28.3869C20.0125 28.7155 21.7308 28.5452 23.2921 27.8976C24.8535 27.2499 26.1878 26.1541 27.1266 24.7484C28.0653 23.3427 28.5663 21.6903 28.5663 20C28.5685 18.8752 28.3483 17.761 27.9184 16.7216C27.4885 15.6822 26.8573 14.738 26.0611 13.9434C25.265 13.1488 24.3196 12.5195 23.2793 12.0915C22.2391 11.6636 21.1245 11.4456 19.9997 11.45ZM19.9997 25.55C18.902 25.55 17.829 25.2245 16.9163 24.6147C16.0036 24.0048 15.2922 23.138 14.8721 22.1239C14.4521 21.1098 14.3422 19.9938 14.5563 18.9172C14.7705 17.8407 15.299 16.8517 16.0752 16.0756C16.8514 15.2994 17.8403 14.7708 18.9169 14.5566C19.9935 14.3425 21.1094 14.4524 22.1236 14.8725C23.1377 15.2925 24.0045 16.0039 24.6143 16.9166C25.2242 17.8293 25.5497 18.9023 25.5497 20C25.5497 20.7288 25.4061 21.4505 25.1272 22.1239C24.8483 22.7973 24.4395 23.4091 23.9241 23.9244C23.4088 24.4398 22.7969 24.8486 22.1236 25.1275C21.4502 25.4064 20.7285 25.55 19.9997 25.55Z" fill="#F2EAEA"/>
</svg>
