<svg width="100" height="105" viewBox="0 0 100 105" fill="none" xmlns="http://www.w3.org/2000/svg">
<path d="M72.2497 23.7635C71.2608 23.7635 70.2941 24.0698 69.4718 24.6437C68.6496 25.2175 68.0087 26.0332 67.6303 26.9876C67.2518 27.9419 67.1528 28.992 67.3457 30.0051C67.5387 31.0182 68.0149 31.9488 68.7141 32.6792C69.4134 33.4096 70.3043 33.9071 71.2742 34.1086C72.2441 34.3101 73.2495 34.2067 74.1631 33.8114C75.0767 33.4161 75.8576 32.7467 76.407 31.8878C76.9564 31.0289 77.2497 30.0192 77.2497 28.9862C77.2497 27.6011 76.7229 26.2726 75.7852 25.2932C74.8475 24.3137 73.5758 23.7635 72.2497 23.7635ZM91.4163 34.296C91.3353 30.6849 90.6878 27.1121 89.4997 23.7199C88.4402 20.8176 86.7913 18.1894 84.6663 16.0164C82.6031 13.7856 80.0812 12.074 77.2913 11.0113C74.0524 9.73243 70.6282 9.04063 67.1663 8.96573C62.7497 8.70459 61.333 8.70459 49.9997 8.70459C38.6663 8.70459 37.2497 8.70459 32.833 8.96573C29.3711 9.04063 25.9469 9.73243 22.708 11.0113C19.9233 12.0848 17.4036 13.7948 15.333 16.0164C13.1973 18.1716 11.5587 20.8058 10.5413 23.7199C9.31701 27.1032 8.65472 30.6799 8.58301 34.296C8.33301 38.9094 8.33301 40.3892 8.33301 52.2274C8.33301 64.0656 8.33301 65.5453 8.58301 70.1588C8.65472 73.7748 9.31701 77.3516 10.5413 80.7348C11.5587 83.6489 13.1973 86.2832 15.333 88.4383C17.4036 90.6599 19.9233 92.37 22.708 93.4434C25.9469 94.7223 29.3711 95.4141 32.833 95.489C37.2497 95.7502 38.6663 95.7502 49.9997 95.7502C61.333 95.7502 62.7497 95.7502 67.1663 95.489C70.6282 95.4141 74.0524 94.7223 77.2913 93.4434C80.0812 92.3807 82.6031 90.6692 84.6663 88.4383C86.8007 86.2734 88.4511 83.643 89.4997 80.7348C90.6878 77.3426 91.3353 73.7699 91.4163 70.1588C91.4163 65.5453 91.6663 64.0656 91.6663 52.2274C91.6663 40.3892 91.6663 38.9094 91.4163 34.296ZM83.9163 69.6365C83.886 72.3992 83.407 75.1365 82.4997 77.7317C81.8344 79.6258 80.7658 81.3373 79.3747 82.7368C78.0232 84.1753 76.3881 85.2892 74.583 86.0011C72.0984 86.9488 69.4779 87.4491 66.833 87.4808C62.6663 87.6984 61.1247 87.742 50.1663 87.742C39.208 87.742 37.6663 87.742 33.4997 87.4808C30.7534 87.5345 28.0188 87.0928 25.4163 86.1751C23.6904 85.4269 22.1303 84.3158 20.833 82.9109C19.45 81.5128 18.3949 79.7999 17.7497 77.9058C16.7324 75.2733 16.1682 72.4739 16.083 69.6365C16.083 65.2842 15.833 63.6739 15.833 52.2274C15.833 40.7809 15.833 39.1705 16.083 34.8183C16.1017 31.9939 16.5953 29.1949 17.5413 26.5489C18.2749 24.7119 19.4008 23.0743 20.833 21.7614C22.0989 20.265 23.6634 19.0765 25.4163 18.2796C27.9561 17.3223 30.633 16.8219 33.333 16.7998C37.4997 16.7998 39.0413 16.5387 49.9997 16.5387C60.958 16.5387 62.4997 16.5387 66.6663 16.7998C69.3112 16.8315 71.9318 17.3319 74.4163 18.2796C76.3098 19.0136 78.0092 20.207 79.3747 21.7614C80.7401 23.0984 81.807 24.7329 82.4997 26.5489C83.4257 29.1992 83.905 31.997 83.9163 34.8183C84.1247 39.1705 84.1663 40.7809 84.1663 52.2274C84.1663 63.6739 84.1247 65.2842 83.9163 69.6365ZM49.9997 29.9002C45.7739 29.9088 41.6453 31.2256 38.1357 33.6841C34.6261 36.1427 31.8929 39.6327 30.2815 43.7132C28.67 47.7938 28.2527 52.2816 29.0821 56.6098C29.9116 60.938 31.9507 64.9122 34.9417 68.0304C37.9327 71.1486 41.7414 73.2707 45.8866 74.1287C50.0318 74.9867 54.3274 74.542 58.2308 72.8508C62.1341 71.1596 65.47 68.2979 67.8169 64.6272C70.1638 60.9564 71.4163 56.6414 71.4163 52.2274C71.4218 49.29 70.8714 46.3806 69.7965 43.6662C68.7217 40.952 67.1437 38.4864 65.1533 36.4114C63.1629 34.3364 60.7995 32.6929 58.1988 31.5755C55.5982 30.4581 52.8117 29.8887 49.9997 29.9002ZM49.9997 66.7205C47.2555 66.7205 44.5729 65.8705 42.2911 64.2779C40.0094 62.6854 38.231 60.4219 37.1808 57.7736C36.1307 55.1254 35.8559 52.2113 36.3913 49.3999C36.9266 46.5885 38.2481 44.0061 40.1886 41.9792C42.129 39.9523 44.6013 38.572 47.2928 38.0128C49.9843 37.4535 52.7741 37.7406 55.3094 38.8375C57.8447 39.9345 60.0117 41.7921 61.5363 44.1754C63.0609 46.5588 63.8747 49.3609 63.8747 52.2274C63.8747 54.1306 63.5158 56.0153 62.8185 57.7736C62.1212 59.532 61.0992 61.1297 59.8108 62.4755C58.5224 63.8213 56.9928 64.8889 55.3094 65.6172C53.626 66.3456 51.8218 66.7205 49.9997 66.7205Z" fill="#F2EAEA"/>
</svg>
