<svg width="100" height="105" viewBox="0 0 100 105" fill="none" xmlns="http://www.w3.org/2000/svg">
<path d="M92.7689 10.566C91.5826 9.53507 90.1508 8.85942 88.6261 8.61095C87.1013 8.36248 85.5406 8.55047 84.11 9.15492L9.4396 40.6452C7.84272 41.3315 6.48342 42.5088 5.5421 44.0209C4.60078 45.533 4.12196 47.3084 4.1692 49.1114C4.21644 50.9143 4.7875 52.6597 5.80659 54.1158C6.82568 55.5718 8.2446 56.6697 9.87501 57.2637L24.9792 62.7508L33.3979 91.8312C33.5123 92.2196 33.6784 92.5894 33.8912 92.9297C33.9235 92.9819 33.969 93.0208 34.0033 93.0715C34.2492 93.4298 34.5463 93.7465 34.8843 94.0105C34.9804 94.0871 35.0725 94.1588 35.1752 94.2268C35.5708 94.5009 36.0088 94.7013 36.4699 94.8192L36.5193 94.8235L36.5472 94.836C36.8244 94.8949 37.1066 94.9248 37.3895 94.9253C37.4167 94.9253 37.4409 94.9117 37.4678 94.9112C37.8948 94.9034 38.318 94.8266 38.7224 94.6835C38.8165 94.65 38.8971 94.594 38.9884 94.5536C39.29 94.4231 39.5757 94.2557 39.8396 94.055C40.0509 93.869 40.2624 93.683 40.4738 93.4972L51.7328 80.5126L68.5256 94.1007C70.004 95.303 71.8237 95.9565 73.6973 95.9581C75.6606 95.9555 77.5633 95.2479 79.0865 93.9541C80.6096 92.6602 81.6606 90.8587 82.0633 88.8516L95.6578 19.1431C95.9659 17.5741 95.8598 15.9472 95.351 14.4364C94.8421 12.9256 93.9496 11.5878 92.7689 10.566ZM39.0417 64.1364C38.4639 64.7375 38.069 65.5034 37.9064 66.3381L36.6168 72.8839L33.3499 61.5981L50.2884 52.3846L39.0417 64.1364ZM73.6323 87.2195L53.7878 71.162C52.9575 70.4918 51.916 70.1731 50.8708 70.2692C49.8257 70.3653 48.8535 70.8692 48.1481 71.6805L44.5422 75.8378L45.8166 69.3683L75.3291 38.5412C76.0335 37.8063 76.4627 36.8323 76.5389 35.7954C76.6151 34.7585 76.3333 33.7275 75.7445 32.8889C75.1557 32.0504 74.2988 31.4598 73.3292 31.2243C72.3595 30.9887 71.3411 31.1236 70.4585 31.6047L28.1031 54.6397L12.585 48.7079L87.4953 17.4046L73.6323 87.2195Z" fill="#F2EAEA"/>
</svg>
