<svg width="40" height="40" viewBox="0 0 40 40" fill="none" xmlns="http://www.w3.org/2000/svg">
<path d="M37.1081 4.04622C36.6336 3.65145 36.0609 3.39271 35.451 3.29756C34.8411 3.20241 34.2168 3.2744 33.6446 3.50587L3.77642 15.5648C3.13768 15.8276 2.59395 16.2784 2.21743 16.8575C1.8409 17.4365 1.64937 18.1164 1.66827 18.8068C1.68716 19.4973 1.91559 20.1656 2.32322 20.7232C2.73086 21.2808 3.29842 21.7013 3.95059 21.9287L9.99226 24.03L13.3598 35.166C13.4055 35.3148 13.4719 35.4564 13.5571 35.5867C13.57 35.6067 13.5882 35.6216 13.6019 35.641C13.7003 35.7782 13.8191 35.8995 13.9543 36.0006C13.9928 36.0299 14.0296 36.0574 14.0707 36.0834C14.2289 36.1884 14.4041 36.2651 14.5886 36.3102L14.6083 36.3119L14.6195 36.3167C14.7304 36.3393 14.8432 36.3507 14.9564 36.3509C14.9673 36.3509 14.9769 36.3457 14.9877 36.3455C15.1585 36.3425 15.3278 36.3131 15.4895 36.2583C15.5272 36.2455 15.5594 36.224 15.5959 36.2086C15.7166 36.1586 15.8309 36.0945 15.9364 36.0176C16.021 35.9464 16.1055 35.8752 16.1901 35.804L20.6937 30.8317L27.4108 36.0351C28.0022 36.4955 28.7301 36.7458 29.4795 36.7464C30.2648 36.7454 31.0259 36.4744 31.6352 35.979C32.2444 35.4835 32.6648 34.7936 32.8259 34.025L38.2637 7.33074C38.387 6.72994 38.3445 6.10693 38.141 5.52839C37.9374 4.94984 37.5804 4.43751 37.1081 4.04622ZM15.6173 24.5606C15.3862 24.7907 15.2282 25.084 15.1632 25.4037L14.6473 27.9103L13.3405 23.5885L20.116 20.0603L15.6173 24.5606ZM29.4535 33.4L21.5157 27.2509C21.1836 26.9943 20.767 26.8722 20.3489 26.909C19.9309 26.9458 19.542 27.1388 19.2598 27.4495L17.8175 29.0415L18.3272 26.5641L30.1322 14.7591C30.414 14.4777 30.5857 14.1047 30.6161 13.7076C30.6466 13.3106 30.5339 12.9157 30.2984 12.5946C30.0629 12.2735 29.7201 12.0473 29.3323 11.9571C28.9444 11.8669 28.537 11.9186 28.184 12.1028L11.2418 20.9239L5.03457 18.6524L34.9987 6.66501L29.4535 33.4Z" fill="#F2EAEA"/>
</svg>
