<svg width="40" height="40" viewBox="0 0 40 40" fill="none" xmlns="http://www.w3.org/2000/svg">
<path d="M27.6663 23.3333C27.333 23.1667 25.1663 22.1667 24.833 22C24.4997 21.8333 24.1663 21.8333 23.833 22.1667C23.4997 22.5 22.833 23.5 22.4997 23.8333C22.333 24.1667 21.9997 24.1667 21.6663 24C20.4997 23.5 19.333 22.8333 18.333 22C17.4997 21.1667 16.6663 20.1667 15.9997 19.1667C15.833 18.8333 15.9997 18.5 16.1663 18.3333C16.333 18.1667 16.4997 17.8333 16.833 17.6667C16.9997 17.5 17.1663 17.1667 17.1663 17C17.333 16.8333 17.333 16.5 17.1663 16.3333C16.9997 16.1667 16.1663 14.1667 15.833 13.3333C15.6663 12.1667 15.333 12.1667 14.9997 12.1667H14.1663C13.833 12.1667 13.333 12.5 13.1663 12.6667C12.1663 13.6667 11.6663 14.8333 11.6663 16.1667C11.833 17.6667 12.333 19.1667 13.333 20.5C15.1663 23.1667 17.4997 25.3333 20.333 26.6667C21.1663 27 21.833 27.3333 22.6663 27.5C23.4997 27.8333 24.333 27.8333 25.333 27.6667C26.4997 27.5 27.4997 26.6667 28.1663 25.6667C28.4997 25 28.4997 24.3333 28.333 23.6667L27.6663 23.3333ZM31.833 8.16666C25.333 1.66666 14.833 1.66666 8.33301 8.16666C2.99967 13.5 1.99967 21.6667 5.66634 28.1667L3.33301 36.6667L12.1663 34.3333C14.6663 35.6667 17.333 36.3333 19.9997 36.3333C29.1663 36.3333 36.4997 29 36.4997 19.8333C36.6663 15.5 34.833 11.3333 31.833 8.16666ZM27.333 31.5C25.1663 32.8333 22.6663 33.6667 19.9997 33.6667C17.4997 33.6667 15.1663 33 12.9997 31.8333L12.4997 31.5L7.33301 32.8333L8.66634 27.8333L8.33301 27.3333C4.33301 20.6667 6.33301 12.3333 12.833 8.16666C19.333 3.99999 27.6663 6.16666 31.6663 12.5C35.6663 19 33.833 27.5 27.333 31.5Z" fill="#F2EAEA"/>
</svg>
