<svg width="100" height="105" viewBox="0 0 100 105" fill="none" xmlns="http://www.w3.org/2000/svg">
<path d="M69.1663 60.9318C68.333 60.4966 62.9163 57.8853 62.083 57.45C61.2497 57.0148 60.4163 57.0148 59.583 57.8853C58.7497 58.7557 57.083 61.3671 56.2497 62.2375C55.833 63.108 54.9997 63.108 54.1663 62.6728C51.2497 61.3671 48.333 59.6262 45.833 57.45C43.7497 55.2739 41.6663 52.6625 39.9997 50.0512C39.583 49.1807 39.9997 48.3102 40.4163 47.875C40.833 47.4398 41.2497 46.5693 42.083 46.1341C42.4997 45.6989 42.9163 44.8284 42.9163 44.3932C43.333 43.958 43.333 43.0875 42.9163 42.6523C42.4997 42.2171 40.4163 36.9943 39.583 34.8182C39.1663 31.7716 38.333 31.7716 37.4997 31.7716H35.4163C34.583 31.7716 33.333 32.642 32.9163 33.0773C30.4163 35.6886 29.1663 38.7352 29.1663 42.2171C29.583 46.1341 30.833 50.0512 33.333 53.533C37.9163 60.4966 43.7497 66.1546 50.833 69.6364C52.9163 70.5069 54.583 71.3773 56.6663 71.8125C58.7497 72.683 60.833 72.683 63.333 72.2478C66.2497 71.8125 68.7497 69.6364 70.4163 67.025C71.2497 65.2841 71.2497 63.5432 70.833 61.8023L69.1663 60.9318ZM79.583 21.3261C63.333 4.35223 37.083 4.35223 20.833 21.3261C7.49967 35.2534 4.99967 56.5796 14.1663 73.5535L8.33301 95.7501L30.4163 89.6569C36.6663 93.1387 43.333 94.8796 49.9997 94.8796C72.9163 94.8796 91.2497 75.7296 91.2497 51.7921C91.6663 40.4761 87.083 29.5954 79.583 21.3261ZM68.333 82.258C62.9163 85.7398 56.6663 87.916 49.9997 87.916C43.7497 87.916 37.9163 86.1751 32.4997 83.1285L31.2497 82.258L18.333 85.7398L21.6663 72.683L20.833 71.3773C10.833 53.9682 15.833 32.2068 32.083 21.3261C48.333 10.4454 69.1663 16.1034 79.1663 32.642C89.1663 49.6159 84.583 71.8125 68.333 82.258Z" fill="#F2EAEA"/>
</svg>
